<svg width="64" height="65" viewBox="0 0 64 65" fill="none" xmlns="http://www.w3.org/2000/svg">
<path d="M32.0557 0.216553C33.2307 0.755398 33.2756 2.45358 33.2552 3.5925C32.888 2.86588 32.5657 2.12292 32.2148 1.38813C32.1781 1.0983 32.0965 0.510468 32.0557 0.216553Z" fill="#F6D897"/>
<path d="M32.2148 1.38806C32.5657 2.12285 32.888 2.86581 33.2552 3.59243C33.9121 5.13141 34.6424 6.65814 35.8052 7.9032C36.8416 8.17671 38.0411 8.80128 39.0203 8.02159C41.3459 6.94797 43.1084 5.12324 44.4793 3.01685C44.6425 3.53936 44.6752 4.09454 44.667 4.64155C44.2957 6.06214 44.2712 7.48682 44.5936 8.91966C44.667 9.79733 44.8873 10.675 45.4585 11.369C48.237 14.2877 52.1375 11.12 54.9241 10.0055C54.153 10.8832 53.9204 12.1323 53.2228 12.9937C52.4516 13.4794 52.37 14.4265 52.4557 15.2511C51.6764 16.688 52.2966 18.6026 53.6022 19.5088C54.1938 19.9578 54.8874 20.2763 55.63 20.362C57.1518 20.5987 58.8654 20.9743 60.3505 20.3375C60.7422 20.3334 61.1339 20.3824 61.5174 20.4804C59.8324 21.8887 58.2697 23.346 56.9029 25.0687C55.94 26.0933 55.581 28.0569 56.8744 28.9386C57.2701 29.3387 57.6659 29.7387 58.0739 30.1306C58.7063 30.8899 59.6692 31.2205 60.6198 31.3634C61.0115 31.4573 61.3909 31.5879 61.7663 31.7471C62.2436 32.0737 62.7088 32.4085 63.1698 32.7595C61.0074 33.7229 58.384 34.0495 56.8703 36.0538C55.9237 36.7151 55.7116 38.2133 56.45 39.1155C56.858 39.7727 57.4007 40.3605 57.7026 41.0831C57.976 42.0832 58.7675 42.9649 59.8201 43.1527C60.273 43.2874 60.5912 43.5814 60.7789 44.0304C58.9307 44.3815 57.0008 44.0794 55.1893 44.5978C53.9368 44.8509 52.6964 45.5041 52.264 46.7899C51.7336 47.6268 51.8192 48.782 52.268 49.6311C52.472 50.8354 52.8923 52.0029 53.6348 52.9826C53.7817 53.2071 54.0796 53.6521 54.2264 53.8766C53.6348 54.1052 53.0392 53.8398 52.4639 53.7174C51.7988 53.4602 51.1012 53.252 50.5055 52.852C50.2974 52.7295 49.8853 52.4886 49.6772 52.3662C48.8082 51.7212 47.4047 51.5212 46.7192 52.4315C46.605 52.5335 46.3806 52.7336 46.2704 52.8356C44.9934 53.5704 44.7608 54.8808 44.2468 56.0973C43.8143 57.4811 43.798 58.9058 44.1978 60.3631C44.312 60.9918 44.5283 61.845 43.5776 61.4204C41.9946 59.2814 39.9791 56.4279 36.9884 56.5912C33.5816 57.5995 33.802 61.9674 32.1414 64.3637C32.0435 63.535 31.8721 62.7186 31.7171 61.9021C31.5049 60.8571 31.407 59.6447 30.5216 58.9181C29.2609 57.9179 28.4653 55.7503 26.3845 56.5912C23.8427 57.4485 22.28 59.71 20.4685 61.5429C20.3706 61.1551 20.3176 60.7591 20.3094 60.3591C20.5256 58.8282 20.95 57.1546 20.391 55.6442C20.2808 55.2237 20.1176 54.8277 19.9055 54.4522C19.5628 53.8766 19.2078 53.301 18.7264 52.8275C17.6003 51.362 15.0544 52.1376 13.708 52.9214C13.5121 53.0275 13.1204 53.2316 12.9246 53.3377C12.0515 53.4765 11.2273 54.1787 10.3297 53.8807C10.8642 53.0806 11.4517 52.3049 11.7985 51.3987C12.4676 49.8516 13.455 47.8105 12.1127 46.3613C11.6557 45.8551 11.1212 45.4347 10.5419 45.0795C8.45699 43.912 5.87843 44.2223 3.61403 44.6713C3.57731 44.5121 3.50387 44.1896 3.46715 44.0263C4.93187 43.1854 6.11915 41.9975 7.26563 40.7728C8.62019 39.4053 9.10572 36.409 7.15956 35.3476C6.76788 35.0823 6.40884 34.7802 6.06612 34.4618C5.3358 33.5882 4.14035 33.4617 3.09179 33.2616C2.26763 33.1065 1.44755 32.9269 0.615234 32.8208C1.40675 31.4002 3.46715 31.939 4.71971 31.245C6.17219 30.3102 8.26116 29.1713 8.3958 27.2159C7.4574 24.2278 4.94004 22.1826 2.65932 20.2232L3.07956 20.2763C5.13996 20.5579 7.32684 21.0559 9.35868 20.415C10.4603 20.1905 11.3293 19.419 12.0964 18.6434C13.1531 17.5004 12.8144 15.7206 12.1331 14.4673C11.3416 13.0386 10.4195 11.6221 10.0033 10.03C12.4758 11.3118 15.2012 13.3692 18.1021 12.3854C18.8488 11.7649 19.4281 10.973 19.9136 10.1402C20.2441 8.10323 20.3584 6.0254 20.2523 3.91084C20.444 4.02514 20.8276 4.26191 21.0234 4.38029C22.6513 5.94784 24.2996 7.54805 26.3927 8.57268C27.1352 9.185 28.2328 8.81353 28.7264 8.06649C30.591 6.25809 31.3988 3.79246 32.2148 1.38806ZM28.808 11.2751L28.8121 11.671C26.6334 12.2181 24.0712 12.5691 22.3698 14.1897C20.6848 14.1897 19.6076 15.8349 18.2898 16.6717C12.4513 21.8438 9.73811 30.3633 11.925 37.9316C12.5044 39.5318 12.8471 41.4586 14.2261 42.5526C14.2343 42.7608 14.2424 43.1772 14.2506 43.3854C16.7068 46.8797 19.7749 50.1863 23.8223 51.8232C32.0476 55.7258 42.4352 53.0561 48.4002 46.3817C49.1632 45.0673 50.6605 44.2263 50.734 42.5812C51.3868 41.9648 51.6887 41.0627 51.9906 40.2381L52.3741 40.1768C54.2183 36.1191 53.9368 31.5185 53.2187 27.2282L52.8352 27.1833C51.9865 22.5704 48.9224 18.3413 45.0668 15.7777C44.6466 15.1368 43.8469 14.549 43.035 14.5571C42.4801 13.7121 41.1582 13.3978 40.2116 12.9937L40.1708 12.6059C36.5315 11.2098 32.6718 10.9975 28.808 11.2751Z" fill="#F2B240"/>
<path d="M44.4793 3.01677C43.9815 2.49833 45.8175 2.47384 45.3973 2.99228C44.8465 5.77632 45.1117 8.61342 45.4585 11.3689C44.8873 10.6749 44.6669 9.79725 44.5935 8.91958C44.6384 7.49082 44.7241 6.07023 44.6669 4.64147C44.6751 4.09446 44.6425 3.53929 44.4793 3.01677Z" fill="#FAEAC4"/>
<path d="M19.5137 3.06991C20.3379 2.9352 21.3008 3.40464 21.0233 4.38028C20.8275 4.2619 20.444 4.02513 20.2522 3.91083C20.3583 6.0254 20.244 8.10322 19.9136 10.1402C19.7953 7.78073 19.9544 5.40083 19.5137 3.06991Z" fill="#F7D99A"/>
<path d="M44.5935 8.91971C44.2712 7.48687 44.2957 6.06219 44.667 4.6416C44.7241 6.07036 44.6384 7.49095 44.5935 8.91971Z" fill="#F4CC6D"/>
<path d="M26.3926 8.57274C27.1556 8.40129 27.9185 7.71957 28.7264 8.06655C28.2327 8.81358 27.1352 9.18506 26.3926 8.57274Z" fill="#F3CF7B"/>
<path d="M28.808 11.2751C32.6717 10.9975 36.5314 11.2097 40.1708 12.6058L40.2116 12.9937C36.4661 12.116 32.7085 11.2547 28.8121 11.671L28.808 11.2751Z" fill="#F8D54A"/>
<path d="M22.3698 14.1897C24.0711 12.5691 26.6334 12.218 28.8121 11.671C32.7085 11.2546 36.4662 12.116 40.2116 12.9936C41.1582 13.3978 42.4801 13.7121 43.035 14.5571C42.986 15.7123 44.5079 15.5613 44.8343 16.4961C47.2251 19.4965 48.4981 23.5746 47.3475 27.3424C45.4218 32.7921 39.8893 36.3845 34.2426 36.7314C30.1871 37.5928 26.4171 35.7313 22.6921 34.4903C19.2527 31.9675 16.4864 28.065 16.6986 23.644C17.1882 19.8353 19.2649 16.4145 22.3698 14.1897Z" fill="#FCE652"/>
<path d="M52.4557 15.2511C52.37 14.4265 52.4516 13.4794 53.2227 12.9937C53.4553 13.6958 53.0759 14.9857 52.4557 15.2511Z" fill="#F9DBA6"/>
<path d="M18.2897 16.6717C19.6076 15.8348 20.6847 14.1897 22.3697 14.1897C19.2648 16.4145 17.1881 19.8353 16.6985 23.644C16.4864 28.065 19.2526 31.9675 22.692 34.4903C24.9687 36.5886 28.2857 37.156 31.256 37.3927C35.6583 37.9602 39.9627 36.2171 43.5123 33.7474C47.8044 30.4122 49.8036 24.0032 47.1761 19.0148C46.6661 17.8106 45.5115 17.0146 45.0668 15.7777C48.9224 18.3413 51.9864 22.5704 52.8351 27.1832C53.5001 31.5716 53.4838 36.0211 51.9905 40.238C51.6886 41.0626 51.3867 41.9648 50.7339 42.5812C45.3156 47.341 38.1512 50.4516 30.852 50.027C26.8618 49.5249 22.8226 48.6228 19.4117 46.3939C17.4125 45.4836 16.0335 43.7323 14.226 42.5526C12.847 41.4586 12.5043 39.5318 11.9249 37.9316C9.73804 30.3632 12.4512 21.8438 18.2897 16.6717Z" fill="#F8D347"/>
<path d="M43.0349 14.5572C43.8469 14.549 44.6465 15.1369 45.0668 15.7778C45.5115 17.0147 46.6661 17.8107 47.1761 19.0149C49.8037 24.0034 47.8045 30.4124 43.5123 33.7475C39.9627 36.2172 35.6583 37.9603 31.256 37.3929C28.2857 37.1561 24.9687 36.5887 22.692 34.4904C26.4171 35.7314 30.187 37.5929 34.2425 36.7315C39.8893 36.3846 45.4217 32.7923 47.3475 27.3426C48.4981 23.5747 47.2251 19.4966 44.8342 16.4962C44.5078 15.5614 42.986 15.7125 43.0349 14.5572Z" fill="#F9DB4C"/>
<path d="M53.6022 19.5088C56.4786 19.77 59.359 19.8925 62.2558 19.8639C62.4272 20.5865 62.1824 20.7906 61.5174 20.4803C61.1338 20.3824 60.7422 20.3334 60.3505 20.3375C58.7715 20.2517 57.2007 20.2191 55.6299 20.362C54.8874 20.2762 54.1938 19.9578 53.6022 19.5088Z" fill="#F9E8BE"/>
<path d="M3.0999 19.8435C5.17661 20.1415 7.27373 20.1987 9.35861 20.415C7.32677 21.0559 5.1399 20.5579 3.0795 20.2762L3.0999 19.8435Z" fill="#F9E3AF"/>
<path d="M55.6299 20.3619C57.2007 20.219 58.7715 20.2517 60.3505 20.3374C58.8654 20.9742 57.1518 20.5987 55.6299 20.3619Z" fill="#F6CA6A"/>
<path d="M56.8743 28.9386C55.5809 28.0569 55.94 26.0934 56.9028 25.0687C56.7764 26.3832 56.4296 27.6282 56.8743 28.9386Z" fill="#F6D082"/>
<path d="M52.8351 27.1833L53.2186 27.2283C53.9367 31.5186 54.2182 36.1192 52.3741 40.1769L51.9905 40.2381C53.4838 36.0212 53.5002 31.5717 52.8351 27.1833Z" fill="#F4C342"/>
<path d="M58.0739 30.1306C58.9674 30.1633 60.2607 30.5388 60.6198 31.3634C59.6691 31.2206 58.7063 30.8899 58.0739 30.1306Z" fill="#F8DCA2"/>
<path d="M7.15952 35.3477C9.10567 36.409 8.62015 39.4053 7.26559 40.7729C7.18399 39.5931 8.12647 38.6012 7.98367 37.4255C7.71439 36.7274 7.27375 36.0988 7.15952 35.3477Z" fill="#F8E0AF"/>
<path d="M56.45 39.1155C55.7115 38.2133 55.9237 36.7151 56.8703 36.0538C56.7479 37.0785 56.5194 38.0827 56.45 39.1155Z" fill="#F5D28B"/>
<path d="M57.7025 41.083C58.5961 41.4831 59.3468 42.2995 59.8201 43.1527C58.7674 42.9649 57.9759 42.0831 57.7025 41.083Z" fill="#F6D48E"/>
<path d="M14.2261 42.5526C16.0335 43.7324 17.4126 45.4836 19.4118 46.3939C22.8226 48.6228 26.8618 49.525 30.8521 50.0271C38.1512 50.4516 45.3157 47.341 50.7339 42.5812C50.6605 44.2263 49.1631 45.0672 48.4002 46.3817C42.4352 53.056 32.0475 55.7258 23.8222 51.8232C19.7749 50.1863 16.7067 46.8797 14.2506 43.3854C14.2424 43.1772 14.2342 42.7608 14.2261 42.5526Z" fill="#F5C242"/>
<path d="M52.2639 46.7899C52.6964 45.504 53.9367 44.8509 55.1893 44.5978L55.3076 45.006C54.1162 45.3162 53.337 46.3368 52.2639 46.7899Z" fill="#F8DB9E"/>
<path d="M55.1893 44.5978C57.0375 44.7651 58.8898 44.7815 60.734 45.0468C58.9429 45.0019 57.0661 45.4673 55.3076 45.006L55.1893 44.5978Z" fill="#F9EBC7"/>
<path d="M12.1126 46.3613C13.455 47.8105 12.4676 49.8516 11.7985 51.3987C11.7005 49.7128 12.1371 48.0473 12.1126 46.3613Z" fill="#F8DB9F"/>
<path d="M52.268 49.6311C51.8192 48.782 51.7335 47.6268 52.2639 46.7899C52.7209 47.6227 52.725 48.7983 52.268 49.6311Z" fill="#F9DEA2"/>
<path d="M52.268 49.6311C53.1656 50.1046 53.6348 51.86 53.6348 52.9826C52.8922 52.0028 52.472 50.8353 52.268 49.6311Z" fill="#F7DEA9"/>
<path d="M13.7079 52.9214C15.0543 52.1376 17.6003 51.362 18.7263 52.8275C17.9756 52.9785 17.2902 52.6234 16.568 52.505C15.6296 52.7336 14.6912 53.0234 13.7079 52.9214Z" fill="#F7D99E"/>
<path d="M46.7192 52.4314C47.4046 51.5211 48.8082 51.7211 49.6772 52.3661C48.9387 52.3824 47.4577 52.4151 46.7192 52.4314Z" fill="#F5CE7B"/>
<path d="M46.2704 52.8357C46.3806 52.7336 46.605 52.5336 46.7192 52.4315C47.4577 52.4152 48.9387 52.3825 49.6772 52.3662C49.8853 52.4887 50.2974 52.7295 50.5054 52.852C49.0856 52.8969 47.678 52.9744 46.2704 52.8357Z" fill="#F9E5B7"/>
<path d="M10.3297 53.8806C11.2273 54.1786 12.0515 53.4764 12.9246 53.3376C12.284 54.4113 10.6969 54.7052 9.60754 55.3542C9.61978 54.8481 9.55859 53.7255 10.3297 53.8806Z" fill="#F7D99C"/>
<path d="M19.9055 54.4521C20.1176 54.8277 20.2808 55.2237 20.391 55.6441C20.3012 57.2076 20.1829 58.7915 20.3094 60.3591C20.3175 60.7591 20.3706 61.1551 20.4685 61.5429C20.7786 62.2124 20.5705 62.4614 19.8483 62.2899C19.8483 59.6773 19.7178 57.0607 19.9055 54.4521Z" fill="#F8E3B2"/>
<path d="M20.391 55.6442C20.9499 57.1546 20.5256 58.8283 20.3094 60.3591C20.1829 58.7915 20.3012 57.2076 20.391 55.6442Z" fill="#F6CC77"/>
<path d="M44.1977 60.363C43.7979 58.9057 43.8142 57.481 44.2467 56.0972C44.2997 57.5137 44.4017 58.9506 44.1977 60.363Z" fill="#F6C265"/>
<path d="M30.5216 58.918C31.4069 59.6446 31.5049 60.857 31.717 61.902C30.8113 61.4081 30.6603 59.9181 30.5216 58.918Z" fill="#F8DAA0"/>
</svg>
